<svg width="17" height="17" viewBox="0 0 17 17" fill="none" xmlns="http://www.w3.org/2000/svg">
<path d="M7.93331 11.7583C8.21664 12.1125 8.78331 12.1125 9.06664 11.7583L13.3166 7.29583C13.6708 6.94167 13.3166 6.375 12.75 6.375H9.91664C9.91664 6.375 10.0583 3.11667 9.91664 1.41667C9.84581 0.6375 9.27914 0 8.49997 0C7.72081 0 7.15414 0.6375 7.08331 1.41667C6.94164 3.04583 7.08331 6.375 7.08331 6.375H4.24997C3.68331 6.375 3.32914 6.94167 3.68331 7.36667L7.93331 11.7583Z" fill="white"/>
<path d="M13.4583 13.4584H3.54167C2.7625 13.4584 2.125 14.0959 2.125 14.875C2.125 15.3 2.40833 15.5834 2.83333 15.5834H14.1667C14.5917 15.5834 14.875 15.3 14.875 14.875C14.875 14.0959 14.2375 13.4584 13.4583 13.4584Z" fill="white"/>
</svg>
