<svg width="17" height="17" viewBox="0 0 17 17" fill="none" xmlns="http://www.w3.org/2000/svg">
<path d="M6.16746 13.9591L12.75 7.37657L9.62342 4.24999L3.04088 10.8325C2.95025 10.9233 2.88588 11.0368 2.85458 11.1612L2.125 14.875L5.83808 14.1454C5.96275 14.1142 6.07679 14.0498 6.16746 13.9591ZM14.875 5.25157C15.1406 4.98591 15.2898 4.62564 15.2898 4.24999C15.2898 3.87434 15.1406 3.51407 14.875 3.2484L13.7516 2.12499C13.4859 1.8594 13.1256 1.71021 12.75 1.71021C12.3744 1.71021 12.0141 1.8594 11.7484 2.12499L10.625 3.2484L13.7516 6.37499L14.875 5.25157Z" fill="white"/>
</svg>
