<svg width="15" height="15" viewBox="0 0 15 15" fill="none" xmlns="http://www.w3.org/2000/svg">
<path d="M8.75 3.74998V1.25623C8.7875 1.28748 8.825 1.32498 8.85625 1.35623L12.3937 4.89373C12.425 4.92498 12.4625 4.96248 12.4937 4.99998H10C9.66878 4.99899 9.35142 4.86697 9.11721 4.63277C8.883 4.39856 8.75099 4.08119 8.75 3.74998Z" fill="white"/>
<path d="M13.0875 6.25H10C9.33696 6.25 8.70107 5.98661 8.23223 5.51777C7.76339 5.04893 7.5 4.41304 7.5 3.75V0.6625C7.36391 0.637629 7.22585 0.625079 7.0875 0.625H3.75C3.25272 0.625 2.77581 0.822544 2.42417 1.17417C2.07254 1.52581 1.875 2.00272 1.875 2.5V12.5C1.875 12.9973 2.07254 13.4742 2.42417 13.8258C2.77581 14.1775 3.25272 14.375 3.75 14.375H11.25C11.7473 14.375 12.2242 14.1775 12.5758 13.8258C12.9275 13.4742 13.125 12.9973 13.125 12.5V6.6625C13.1249 6.52415 13.1124 6.38609 13.0875 6.25ZM4.375 8.75H6.875C7.04076 8.75 7.19973 8.81585 7.31694 8.93306C7.43415 9.05027 7.5 9.20924 7.5 9.375C7.5 9.54076 7.43415 9.69973 7.31694 9.81694C7.19973 9.93415 7.04076 10 6.875 10H4.375C4.20924 10 4.05027 9.93415 3.93306 9.81694C3.81585 9.69973 3.75 9.54076 3.75 9.375C3.75 9.20924 3.81585 9.05027 3.93306 8.93306C4.05027 8.81585 4.20924 8.75 4.375 8.75ZM10.625 12.5H4.375C4.20924 12.5 4.05027 12.4342 3.93306 12.3169C3.81585 12.1997 3.75 12.0408 3.75 11.875C3.75 11.7092 3.81585 11.5503 3.93306 11.4331C4.05027 11.3158 4.20924 11.25 4.375 11.25H10.625C10.7908 11.25 10.9497 11.3158 11.0669 11.4331C11.1842 11.5503 11.25 11.7092 11.25 11.875C11.25 12.0408 11.1842 12.1997 11.0669 12.3169C10.9497 12.4342 10.7908 12.5 10.625 12.5Z" fill="white"/>
</svg>
