<svg width="17" height="17" viewBox="0 0 17 17" fill="none" xmlns="http://www.w3.org/2000/svg">
<path d="M15.8392 3.27675C15.6634 2.89425 15.291 2.65625 14.8676 2.65625H2.13245C1.70904 2.65625 1.33663 2.89425 1.16026 3.27675C0.985477 3.65606 1.04604 4.08956 1.31804 4.40725L1.31857 4.40778L6.37501 10.2908V14.875C6.37501 15.071 6.48285 15.2511 6.65551 15.3436C6.73413 15.3855 6.8202 15.4062 6.90626 15.4062C7.00932 15.4062 7.11185 15.376 7.2011 15.317L10.3886 13.192C10.5363 13.0932 10.625 12.9274 10.625 12.75V10.2908L15.682 4.40778C15.954 4.08956 16.0145 3.65606 15.8392 3.27675Z" fill="white"/>
</svg>
