<svg width="12" height="12" viewBox="0 0 12 12" fill="none" xmlns="http://www.w3.org/2000/svg">
<g clip-path="url(#clip0_1_105)">
<path d="M7.75111 2.3563C7.68416 2.28932 7.5948 2.25244 7.49953 2.25244C7.40421 2.25244 7.31489 2.28932 7.2479 2.3563L1.0378 8.56635C0.911833 8.69232 0.771187 8.93469 0.724216 9.10665L0.0130219 11.7144C-0.0101523 11.7994 -0.000678038 11.8754 0.0397989 11.9285C0.0750272 11.9746 0.131517 12 0.198682 12C0.22626 12 0.255661 11.9958 0.286086 11.9875L2.89383 11.2763C3.0657 11.2294 3.30807 11.0888 3.43413 10.9627L9.64418 4.75267C9.71117 4.68568 9.74804 4.59632 9.74804 4.50109C9.74804 4.40577 9.71117 4.31645 9.64418 4.24946L7.75111 2.3563Z" fill="white"/>
<path d="M11.5122 0.488259C11.1974 0.173384 10.7787 0 10.3335 0C9.8882 0 9.46956 0.173384 9.15473 0.488259L8.88807 0.754918C8.75806 0.884934 8.69401 1.00805 8.69766 1.12086C8.70055 1.21115 8.74676 1.25986 8.75201 1.26511L10.7136 3.22668C10.7163 3.22944 10.7814 3.29314 10.8949 3.29318C10.895 3.29318 10.895 3.29318 10.895 3.29318C11.0077 3.29318 11.1257 3.23238 11.2456 3.11246L11.5122 2.8458C12.1622 2.19577 12.1622 1.13825 11.5122 0.488259Z" fill="white"/>
</g>
<defs>
<clipPath id="clip0_1_105">
<rect width="12" height="12" fill="white"/>
</clipPath>
</defs>
</svg>
